# xmcd CD database file
# Copyright (C) 1993-1998 Ti Kan
# 
# Track frame offsets:
#     150
#     11770
#     25780
#     37207
#     48630
#     60270
#     74730
#     87542
#     96362
#     107792
#     121329
#     136825
# 
# Disc length: 1960 seconds
# 
# Revision: 1
# Processed by: cddbd v1.4b41PL1 Copyright (c) Steve Scherf et al.
# Submitted via: DiscPlay 4.0.4
# 
DISCID=ab07a60c
DTITLE=Mills Brothers, The - The Mills Brothers 36 All-Time Greatest Hits Vo
DTITLE=lume 3
DYEAR=1900
DGENRE=
TTITLE0=The End Of The World
TTITLE1=When You Were Sweet Sixteen
TTITLE2=Sweet Adeline
TTITLE3=Moonglow
TTITLE4=Miss You
TTITLE5=Basin Street Blues
TTITLE6=Music, Maestro, Please!
TTITLE7=My Buddy
TTITLE8=My Mother's Eyes
TTITLE9=I'll Be Around
TTITLE10=Rockin' Chair
TTITLE11=I Miss You So
EXTD=
EXTT0=
EXTT1=
EXTT2=
EXTT3=
EXTT4=
EXTT5=
EXTT6=
EXTT7=
EXTT8=
EXTT9=
EXTT10=
EXTT11=
PLAYORDER=
